<svg id="Capa_1" enable-background="new 0 0 512 512" height="512" viewBox="0 0 512 512" width="512" xmlns="http://www.w3.org/2000/svg"><g><g><path clip-rule="evenodd" d="m73.188 160.118c-14.328 18.369-7.916 26.929-13.335 38.523 21.052 24.265 43.154 25.342 65.71 16.611 11.831-25.965 3.263-51.562-17.619-76.791-10.611 8.589-21.591 5.159-34.756 21.657z" fill="#c5e3ff" fill-rule="evenodd"/></g><g><path clip-rule="evenodd" d="m59.797 198.811c-5.873 12.331-17.222 14.003-21.932 34.583-4.937 22.876 4.653 27.723 4.738 40.677 27.975 26.787 56.744 36.624 86.506 20.778 17.988-24.718 18.612-51.109-3.547-79.597-22.017-4.054-43.948-9.581-65.71-16.611-.027.056-.027.113-.055.17z" fill="#7bacdf" fill-rule="evenodd"/></g><g><path clip-rule="evenodd" d="m37.865 314.72c5.476 22.734 16.229 22.961 21.932 34.583 20.541 20.551 40.714 27.61 60.177 15.562 24.74-15.364 31.408-37.304 9.136-70.016-29.025-4.62-57.936-11.537-86.506-20.778.084 13.635-9.449 20.069-4.739 40.649z" fill="#c5e3ff" fill-rule="evenodd"/></g><g><path clip-rule="evenodd" d="m59.797 349.303c5.986 12.246.199 22.195 13.392 38.693 14.81 18.113 24.599 13.663 34.756 21.657 24.428-7.994 32.287-21.6 12.03-44.788-20.202-3.94-40.261-9.128-60.178-15.562z" fill="#7bacdf" fill-rule="evenodd"/></g><g><path clip-rule="evenodd" d="m281.269 297.882c-28.315 22.139-23.464 47.169-8.256 73.106 31.493 16.866 65.369 3.232 99.557-21.685 5.845-12.331 17.222-14.003 21.932-34.583 4.937-22.847-4.653-27.723-4.738-40.649-32.401-6.917-67.668-4.45-108.495 23.811z" fill="#c5e3ff" fill-rule="evenodd"/></g><g><path clip-rule="evenodd" d="m267.792 151.841c-21.79 28.97-11.888 50.088 11.235 67.72 29.734 12.076 61.596-1.02 93.457-20.92-5.873-12.189-.199-22.082-13.306-38.523-14.81-18.113-24.599-13.663-34.784-21.657-21.96-1.049-42.501-.142-56.602 13.38z" fill="#c5e3ff" fill-rule="evenodd"/></g><g><path clip-rule="evenodd" d="m254.798 104.984c-9.902 16.696-8.512 32.57 12.994 46.857 19.009-2.863 37.905-7.313 56.602-13.38-10.725-8.447-9.817-19.871-28.854-29.055-21.222-9.893-28.088-1.616-40.742-4.422z" fill="#7bacdf" fill-rule="evenodd"/></g><g><path clip-rule="evenodd" d="m284.049 105.352c8.568 11.254 16.229 24.123 22.783 38.325 5.873-1.587 11.746-3.317 17.562-5.216-10.725-8.447-9.817-19.871-28.854-29.055-4.398-2.041-8.171-3.317-11.491-4.054z" fill="#3987d0" fill-rule="evenodd"/></g><g><path clip-rule="evenodd" d="m306.832 143.677c9.306 20.098 16.399 42.803 20.74 67.295 15.066-3.402 30.018-7.512 44.913-12.331-5.873-12.189-.199-22.082-13.306-38.523-14.81-18.113-24.599-13.663-34.784-21.657-5.817 1.899-11.69 3.628-17.563 5.216z" fill="#8ac9fe" fill-rule="evenodd"/></g><g><path clip-rule="evenodd" d="m331.743 289.548c-1.787 26.532-6.696 51.591-14.158 74.296 18.413-3.798 36.77-8.646 54.985-14.542 5.845-12.331 17.222-14.003 21.932-34.583 4.937-22.876-4.653-27.723-4.738-40.649-19.237 6.209-38.586 11.368-58.021 15.478z" fill="#8ac9fe" fill-rule="evenodd"/></g><g><path clip-rule="evenodd" d="m84.339 149.885c4.766 19.531 8.426 39.175 10.98 58.847 10.072 2.494 20.144 4.677 30.245 6.52-3.518-25.767-9.391-51.421-17.619-76.791-7.463 6.038-15.123 6.123-23.606 11.424z" fill="#8ac9fe" fill-rule="evenodd"/></g><g><path clip-rule="evenodd" d="m95.319 208.732c3.49 26.816 4.965 53.745 4.426 80.646 9.76 2.069 19.548 3.912 29.365 5.471 1.277-26.561.113-53.15-3.547-79.597-10.1-1.843-20.172-4.025-30.244-6.52z" fill="#3987d0" fill-rule="evenodd"/></g><g><path clip-rule="evenodd" d="m99.745 289.378c-.482 23.244-2.468 46.517-5.958 69.676 8.71 2.183 17.42 4.11 26.187 5.811 4.937-23.216 8.001-46.602 9.136-70.016-9.817-1.559-19.605-3.402-29.365-5.471z" fill="#8ac9fe" fill-rule="evenodd"/></g><g><path clip-rule="evenodd" d="m93.786 359.054c-2.071 13.55-4.625 27.071-7.717 40.564 8.256 4.904 14.98 4.592 21.875 10.035 4.823-14.825 8.824-29.764 12.03-44.788-8.767-1.701-17.477-3.628-26.188-5.811z" fill="#3987d0" fill-rule="evenodd"/></g><g><path clip-rule="evenodd" d="m13.862 100.845c-8.483 8.476-8.483 22.167 0 30.643 8.455 8.447 22.187 8.447 30.642 0 8.483-8.476 8.483-22.167 0-30.643-8.455-8.447-22.187-8.447-30.642 0z" fill="#fd4755" fill-rule="evenodd"/></g><g><path clip-rule="evenodd" d="m216.183 7.5c-11.973 0-21.705 9.695-21.705 21.657s9.732 21.657 21.705 21.657 21.676-9.694 21.676-21.657-9.703-21.657-21.676-21.657z" fill="#fd4755" fill-rule="evenodd"/></g><g><path clip-rule="evenodd" d="m44.504 131.488c8.483-8.476 8.483-22.167 0-30.643-6.724-6.718-16.768-8.107-24.854-4.139 2.383 1.049 4.653 2.551 6.611 4.535 8.483 8.447 8.483 22.167 0 30.643-1.731 1.729-3.688 3.118-5.788 4.139 7.944 3.459 17.534 1.956 24.031-4.535z" fill="#e41e2b" fill-rule="evenodd"/></g><g><path clip-rule="evenodd" d="m237.86 29.157c0-11.962-9.703-21.657-21.676-21.657-1.986 0-3.915.255-5.731.765 8.228 3.061 14.044 10.998 14.044 20.268 0 9.978-6.753 18.397-15.945 20.92 2.355.879 4.937 1.361 7.632 1.361 11.972 0 21.676-9.695 21.676-21.657z" fill="#e41e2b" fill-rule="evenodd"/></g><g><path clip-rule="evenodd" d="m279.027 219.561c-9.646 28.602-8.597 54.68 2.241 78.322 36.43-4.309 72.689-12.246 108.495-23.811-.085-13.663 9.42-20.098 4.738-40.677-5.476-22.734-16.257-22.961-21.932-34.583-.028-.057-.057-.113-.085-.17-30.839 9.977-62.077 16.95-93.457 20.919z" fill="#7bacdf" fill-rule="evenodd"/></g><g><path clip-rule="evenodd" d="m327.572 210.971c3.206 17.972 4.908 36.907 4.908 56.438 0 7.483-.255 14.854-.738 22.139 19.435-4.11 38.785-9.269 58.021-15.477-.085-13.663 9.42-20.098 4.738-40.677-5.476-22.734-16.257-22.961-21.932-34.583-.028-.057-.057-.113-.085-.17-14.894 4.819-29.846 8.929-44.912 12.33z" fill="#3987d0" fill-rule="evenodd"/></g><g><path clip-rule="evenodd" d="m273.013 370.988c-25.279 19.389-21.988 45.638-18.215 72.142 13.306-3.118 21.705 4.734 40.742-4.422 20.967-10.403 18.782-20.948 28.854-29.055 10.639-8.589 21.619-5.159 34.784-21.657 14.385-18.454 7.859-27.014 13.392-38.693-32.855 10.63-66.135 17.83-99.557 21.685z" fill="#7bacdf" fill-rule="evenodd"/></g><g><path clip-rule="evenodd" d="m317.585 363.844c-10.526 31.947-26.131 59.244-45.14 79.285 6.299.482 13.278.283 23.095-4.422 20.967-10.403 18.782-20.948 28.854-29.055 10.639-8.589 21.619-5.159 34.784-21.657 14.385-18.454 7.859-27.014 13.392-38.693-18.215 5.897-36.571 10.744-54.985 14.542z" fill="#3987d0" fill-rule="evenodd"/></g><g><path clip-rule="evenodd" d="m119.974 364.865c-3.206 15.024-7.206 29.962-12.03 44.788 10.725 8.447 9.845 19.899 28.883 29.055 21.194 9.893 28.088 1.616 40.714 4.422 54.559-109.588 54.191-225.412 0-338.146-13.278 3.118-21.676-4.734-40.714 4.422-20.967 10.403-18.811 20.948-28.883 29.055 8.228 25.37 14.101 51.024 17.619 76.791 3.66 26.447 4.823 53.036 3.547 79.597-1.135 23.414-4.199 46.8-9.136 70.016z" fill="#c5e3ff" fill-rule="evenodd"/></g><g><path clip-rule="evenodd" d="m177.541 104.984c36.004 111.175 36.004 226.971 0 338.146 13.335 2.948 17.506 13.663 38.643 13.663 23.407-.283 26.017-10.715 38.614-13.663 7.746-23.868 13.817-47.934 18.215-72.142 4.426-24.293 7.178-48.671 8.256-73.106 1.163-26.107.426-52.243-2.241-78.322-2.298-22.649-6.043-45.241-11.235-67.72-3.632-15.704-7.944-31.323-12.994-46.857-13.335-2.948-17.477-13.663-38.614-13.663-23.409.284-26.047 10.716-38.644 13.664z" fill="#c5e3ff" fill-rule="evenodd"/></g><g><path clip-rule="evenodd" d="m239.221 137.696c5.646 24.378 9.703 48.926 12.228 73.531 2.866 28.29 3.688 56.665 2.412 85.011-1.163 26.532-4.142 53.008-8.966 79.37-4.795 26.277-11.377 52.413-19.747 78.322-2.809.652-5.164 1.644-7.348 2.835 21.903-.737 24.712-10.743 36.997-13.635 7.746-23.868 13.817-47.934 18.215-72.142 4.426-24.293 7.178-48.671 8.256-73.106 1.163-26.107.426-52.243-2.241-78.322-2.298-22.649-6.043-45.241-11.235-67.72-3.632-15.704-7.944-31.323-12.994-46.857-10.696-2.381-15.491-9.723-27.89-12.558 4.71 15.025 8.824 30.134 12.313 45.271z" fill="#8ac9fe" fill-rule="evenodd"/></g><g><path clip-rule="evenodd" d="m154.162 104.814c34.302 111.515 33.422 227.283-2.582 338.543 10.696 1.502 16.825-2.239 25.96-.227 36.004-111.175 36.004-226.971 0-338.146-8.426 1.984-14.895-.454-23.378-.17z" fill="#8ac9fe" fill-rule="evenodd"/></g><path d="m485.065 458.165h-84.86c-6.581 0-11.935-5.346-11.935-11.917s5.354-11.917 11.935-11.917h8.71c14.852 0 26.935-12.075 26.935-26.917s-12.083-26.917-26.935-26.917h-36.24c3.391-7.25 3.992-13.07 4.496-18.068.38-3.772.68-6.752 2.177-9.913 1.733-3.657 4.139-6.123 7.185-9.246 5.315-5.449 11.929-12.23 15.301-26.968 3.561-16.5.352-25.32-2.227-32.407-1.295-3.559-2.318-6.371-2.342-9.867 0-.014.001-.029.001-.043-.018-4.039 1.074-7.301 2.456-11.427 2.417-7.211 5.424-16.187 2.072-30.92-3.947-16.386-10.672-22.946-16.077-28.218-2.525-2.463-4.551-4.457-6.066-7.261-.195-.563-.453-1.087-.76-1.57-1.433-3.299-1.849-6.5-2.348-10.463-.951-7.55-2.135-16.947-11.558-28.755-10.683-13.066-19.592-16.063-26.75-18.472-3.602-1.212-6.446-2.169-9.199-4.33-3.181-2.505-5.05-5.394-7.416-9.051-4.131-6.385-9.272-14.331-22.91-20.91-15.293-7.128-24.61-5.963-32.098-5.028-3.772.472-6.752.845-10.194.081-3.955-.874-6.894-2.668-10.615-4.94-5.32-3.248-11.713-7.143-22.118-8.446v-26.943c12.465-3.317 21.676-14.689 21.676-28.176-.001-16.076-13.09-29.156-29.177-29.156-16.104 0-29.205 13.08-29.205 29.157 0 13.489 9.224 24.864 21.705 28.178v26.946c-11.924 1.356-18.378 5.484-23.714 8.918-3.196 2.057-5.721 3.682-9.144 4.483-3.935.923-7.361.582-11.698.148-7.576-.758-17.002-1.7-30.635 4.857-15.108 7.496-20.02 15.503-23.966 21.938-1.986 3.238-3.555 5.795-6.302 8.006-3.148 2.549-6.388 3.729-10.489 5.224-5.689 2.074-12.487 4.567-19.772 11.441l-18.535-18.5c2.565-4.4 3.938-9.41 3.938-14.63 0-7.786-3.041-15.111-8.562-20.627-11.371-11.36-29.873-11.36-41.244 0-5.52 5.517-8.561 12.842-8.561 20.628s3.041 15.111 8.562 20.627c5.686 5.68 13.153 8.521 20.622 8.521 5.062 0 10.123-1.309 14.63-3.919l19.593 19.556c-6.757 10.488-7.561 18.292-8.21 24.735-.38 3.773-.68 6.753-2.17 9.9-1.742 3.657-4.146 6.123-7.19 9.244-5.314 5.45-11.927 12.232-15.302 26.981-3.56 16.494-.353 25.317 2.224 32.406 1.297 3.569 2.322 6.388 2.345 9.9.025 4.037-1.071 7.297-2.458 11.424-2.426 7.215-5.445 16.193-2.071 30.934 3.95 16.398 10.674 22.959 16.077 28.23 2.719 2.652 4.867 4.748 6.409 7.89 1.771 3.623 2.199 7.034 2.741 11.354.948 7.562 2.128 16.972 11.583 28.793 10.679 13.061 19.582 16.06 26.734 18.469 3.596 1.211 6.436 2.168 9.187 4.333 3.18 2.504 5.053 5.396 7.423 9.055 4.141 6.392 9.293 14.347 22.928 20.904 15.277 7.131 24.599 5.965 32.089 5.03 3.77-.471 6.747-.844 10.179-.081 3.956.875 6.899 2.669 10.625 4.941 6.503 3.964 14.596 8.898 29.727 8.898 16.87-.205 24.762-5.292 31.104-9.379 3.191-2.057 5.712-3.682 9.13-4.481 3.95-.925 7.381-.583 11.726-.148 7.578.756 17.007 1.699 30.639-4.858 15.109-7.496 20.01-15.505 23.948-21.939 1.981-3.237 3.546-5.794 6.284-7.998 3.16-2.551 6.403-3.732 10.51-5.228 6.527-2.377 14.512-5.306 23.017-14.765h46.283c6.581 0 11.935 5.346 11.935 11.917s-5.354 11.917-11.935 11.917h-8.71c-14.852 0-26.935 12.075-26.935 26.917s12.083 26.917 26.935 26.917h84.86c6.581 0 11.935 5.346 11.935 11.917s-5.357 11.919-11.938 11.919h-277.932c-4.142 0-7.5 3.358-7.5 7.5s3.358 7.5 7.5 7.5h277.932c14.852 0 26.935-12.075 26.935-26.917s-12.083-26.918-26.935-26.918zm-445.861-331.983c-5.525 5.519-14.515 5.521-20.041 0-2.684-2.682-4.163-6.239-4.163-10.015s1.479-7.333 4.163-10.016c5.525-5.52 14.515-5.521 20.041 0 2.685 2.682 4.163 6.239 4.163 10.016s-1.479 7.333-4.163 10.015zm347.986 186.865c-2.411 10.537-6.575 14.806-11.396 19.749-2.758 2.828-5.809 5.984-8.366 10.269-27.936 8.86-56.58 15.308-85.331 19.215 3.131-19.173 5.245-38.436 6.33-57.729 31.974-4.15 63.972-11.114 95.328-20.733.541 1.855 1.162 3.576 1.755 5.206 2.216 6.09 4.309 11.842 1.68 24.023zm-64.015-166.345c3.604 2.162 7.102 3.346 10.276 4.414 6.157 2.071 11.973 4.028 19.865 13.68 6.736 8.442 7.481 14.356 8.344 21.204.307 2.438.639 5.044 1.265 7.785-16.715 5.127-33.637 9.41-50.408 12.751-4.063.81-6.7 4.759-5.89 8.821.711 3.568 3.843 6.036 7.348 6.036.485 0 .979-.047 1.473-.146 17.886-3.564 35.93-8.173 53.729-13.703 1.973 2.62 4.102 4.696 6.067 6.613 4.646 4.531 9.033 8.812 11.946 20.9 2.397 10.538.503 16.189-1.69 22.734-1.063 3.171-2.21 6.647-2.81 10.652-30.778 9.647-62.21 16.655-93.629 20.885.143-5.09.241-10.181.241-15.272 0-38.854-4.201-77.714-12.489-116.092 15.586-2.713 31.131-6.491 46.362-11.262zm-54.704-34.238c6.438-.805 12.521-1.564 23.81 3.697 9.758 4.708 12.995 9.711 16.744 15.505.636.983 1.295 1.999 1.998 3.03-12.398 3.575-24.974 6.465-37.574 8.628-2.489-10.199-5.258-20.361-8.327-30.473 1.156-.113 2.271-.252 3.349-.387zm-66.492-83.307c0-7.806 6.372-14.157 14.205-14.157 7.817 0 14.176 6.351 14.176 14.157s-6.36 14.156-14.176 14.156c-7.833 0-14.205-6.35-14.205-14.156zm-131.858 158.031c.65-6.458 1.264-12.558 8.93-22.393 6.736-8.441 12.337-10.483 18.822-12.847 1.823-.664 3.746-1.373 5.72-2.238 5.571 18.529 9.862 37.267 12.902 56.118-15.794-3.256-31.62-7.306-47.25-12.109.442-2.301.67-4.482.876-6.531zm-24.945 47.878c2.414-10.549 6.578-14.82 11.399-19.764 2.184-2.239 4.552-4.683 6.718-7.73 18.32 5.69 36.917 10.386 55.441 14.003 2.645 21.411 3.664 42.932 3.063 64.43-24.288-4.254-48.52-10.168-72.228-17.613-.627-3.514-1.71-6.536-2.715-9.299-2.213-6.093-4.305-11.849-1.678-24.027zm58.344 163.585c-1.593-.632-3.14-1.158-4.615-1.655-6.152-2.072-11.963-4.029-19.859-13.685-6.761-8.454-7.503-14.374-8.363-21.228-.068-.539-.137-1.089-.21-1.645 13.408 3.958 26.948 7.394 40.461 10.243-2.16 9.368-4.62 18.696-7.414 27.97zm-38.658-55.616c-2.4-3.832-5.201-6.591-7.737-9.065-4.645-4.532-9.032-8.812-11.949-20.923-2.412-10.537-.513-16.184 1.686-22.724.675-2.007 1.381-4.142 1.967-6.446 23.752 7.283 47.994 13.055 72.28 17.224-1.165 18.374-3.518 36.705-7.058 54.909-16.453-3.469-32.952-7.83-49.189-12.975zm183.952 94.108c-3.799 1.454-6.818 3.395-9.562 5.163-5.454 3.515-10.606 6.836-23.068 6.987-10.829 0-15.926-3.107-21.828-6.706-2.259-1.378-4.697-2.849-7.477-4.136 14.078-45.388 22.348-91.948 24.568-138.511.197-4.137-2.997-7.651-7.135-7.849-4.146-.194-7.652 2.997-7.849 7.135-2.176 45.647-10.335 91.299-24.232 135.801-.137-.001-.279-.01-.416-.01-2.875 0-5.495.328-7.933.632-6.44.804-12.522 1.565-23.806-3.701-9.758-4.693-13.003-9.703-16.761-15.504-1.866-2.881-3.926-6.033-6.799-9.071 13.65-43.683 20.589-88.507 20.589-133.317 0-44.842-6.949-89.698-20.618-133.411 2.484-2.761 4.237-5.588 5.826-8.178 3.396-5.536 6.603-10.765 17.764-16.303 9.752-4.689 15.687-4.095 22.558-3.409 2.948.295 6.14.609 9.632.467 15.033 48.234 23.324 97.649 24.616 146.985.107 4.074 3.442 7.304 7.494 7.304.066 0 .133-.001.2-.002 4.141-.108 7.41-3.553 7.301-7.694-1.321-50.462-9.759-100.99-25.055-150.305 2.329-1.17 4.365-2.474 6.265-3.697 5.458-3.514 10.614-6.832 23.139-6.992 10.795.008 15.875 3.111 21.758 6.702 3.129 1.91 6.58 4.011 10.854 5.532 33.739 106.76 33.73 219.33-.025 326.088zm85.668-40.976c-4.545 1.655-9.697 3.531-14.791 7.644-4.759 3.83-7.365 8.089-9.665 11.846-3.385 5.532-6.583 10.757-17.738 16.292-9.75 4.689-15.687 4.096-22.563 3.409-1.442-.144-2.949-.287-4.513-.386 5.731-18.916 10.424-38.002 14.118-57.194 27.903-3.524 55.735-9.377 82.976-17.446-.02.197-.042.399-.061.593-.65 6.458-1.264 12.558-8.93 22.393-6.737 8.444-12.342 10.485-18.833 12.849z"/></g></svg>