<svg id="FilledOutline" height="512" viewBox="0 0 512 512" width="512" xmlns="http://www.w3.org/2000/svg"><rect fill="#0093b9" height="448" rx="24" width="456" x="24" y="24"/><path d="m234.74 323.89-86.1 86.1a95.3 95.3 0 0 1 -48.69 26.06 95.3 95.3 0 0 1 26.06-48.69l86.1-86.1z" fill="#cbcbca"/><path d="m293.26 220.11 112.16-112.16a16 16 0 1 1 22.63 22.63l-112.16 112.16z" fill="#cbcbca"/><path d="m424 360h-80a8 8 0 0 1 0-16h34.221a23.853 23.853 0 0 0 23.734-20.44l21.956-146.373-15.822-2.374-21.956 146.374a8.051 8.051 0 0 1 -7.912 6.813h-34.221a24 24 0 0 0 0 48h80a8 8 0 0 1 0 16h-136a24 24 0 0 0 0 48h104v-16h-104a8 8 0 0 1 0-16h136a24 24 0 0 0 0-48z"/><path d="m311.47 249.408a87.55 87.55 0 0 0 48.53 14.592v-16a71.716 71.716 0 0 1 -31.031-7.024l104.731-104.73a24 24 0 1 0 -33.935-33.953l-104.741 104.739a71.7 71.7 0 0 1 -7.024-31.032h-16a88.006 88.006 0 0 0 39.47 73.408zm-7.714-28.48 90.35-90.35 11.316 11.316-90.35 90.351a71.541 71.541 0 0 1 -11.316-11.317zm112.978-109.665a8 8 0 0 1 5.659 13.66l-5.657 5.657-11.316-11.316 5.657-5.657a7.948 7.948 0 0 1 5.657-2.344z"/><path d="m216.53 294.592a87.55 87.55 0 0 0 -48.53-14.592v16a71.716 71.716 0 0 1 31.031 7.024l-78.677 78.676a102.973 102.973 0 0 0 -28.249 52.78 8 8 0 0 0 9.415 9.415 102.985 102.985 0 0 0 52.78-28.249l78.678-78.678a71.7 71.7 0 0 1 7.022 31.032h16a88.006 88.006 0 0 0 -39.47-73.408zm-73.547 109.741a86.993 86.993 0 0 1 -31.483 20.167 87.019 87.019 0 0 1 20.173-31.488l81.26-81.261a71.5 71.5 0 0 1 11.316 11.317z"/><path d="m456 16h-408a32.036 32.036 0 0 0 -32 32v400a32.036 32.036 0 0 0 32 32h408a32.036 32.036 0 0 0 32-32v-400a32.036 32.036 0 0 0 -32-32zm16 432a16.019 16.019 0 0 1 -16 16h-408a16.019 16.019 0 0 1 -16-16v-400a16.019 16.019 0 0 1 16-16h408a16.019 16.019 0 0 1 16 16z"/><path d="m408 424h16v16h-16z"/><path d="m48 48h16v16h-16z"/><path d="m104 48h16v16h-16z"/><path d="m160 48h16v16h-16z"/><path d="m216 48h16v16h-16z"/><path d="m272 48h16v16h-16z"/><path d="m328 48h16v16h-16z"/><path d="m384 48h16v16h-16z"/><path d="m440 48h16v16h-16z"/><path d="m48 96h16v16h-16z"/><path d="m48 144h16v16h-16z"/><path d="m48 192h16v16h-16z"/><path d="m48 240h16v16h-16z"/><path d="m48 288h16v16h-16z"/><path d="m48 336h16v16h-16z"/><path d="m48 384h16v16h-16z"/><path d="m48 432h16v16h-16z"/></svg>
